<svg width="16" height="27" viewBox="0 0 16 27" fill="none" xmlns="http://www.w3.org/2000/svg">
<path d="M15.7946 2.42857C15.7946 2.1875 15.6875 1.97321 15.5268 1.8125L14.1875 0.473212C14.0268 0.3125 13.7857 0.205355 13.5714 0.205355C13.3571 0.205355 13.1161 0.3125 12.9554 0.473212L0.473214 12.9554C0.3125 13.1161 0.205357 13.3571 0.205357 13.5714C0.205357 13.7857 0.3125 14.0268 0.473214 14.1875L12.9554 26.6696C13.1161 26.8304 13.3571 26.9375 13.5714 26.9375C13.7857 26.9375 14.0268 26.8304 14.1875 26.6696L15.5268 25.3304C15.6875 25.1696 15.7946 24.9286 15.7946 24.7143C15.7946 24.5 15.6875 24.2589 15.5268 24.0982L5 13.5714L15.5268 3.04464C15.6875 2.88393 15.7946 2.64285 15.7946 2.42857Z" fill="black"/>
</svg>
