<svg width="16" height="27" viewBox="0 0 16 27" fill="none" xmlns="http://www.w3.org/2000/svg">
<path d="M0.205356 2.42857C0.205356 2.1875 0.312499 1.97321 0.473214 1.8125L1.8125 0.473212C1.97321 0.3125 2.21428 0.205355 2.42857 0.205355C2.64286 0.205355 2.88393 0.3125 3.04464 0.473212L15.5268 12.9554C15.6875 13.1161 15.7946 13.3571 15.7946 13.5714C15.7946 13.7857 15.6875 14.0268 15.5268 14.1875L3.04464 26.6696C2.88393 26.8304 2.64286 26.9375 2.42857 26.9375C2.21428 26.9375 1.97321 26.8304 1.8125 26.6696L0.473214 25.3304C0.312499 25.1696 0.205356 24.9286 0.205356 24.7143C0.205356 24.5 0.312499 24.2589 0.473214 24.0982L11 13.5714L0.473214 3.04464C0.312499 2.88393 0.205356 2.64285 0.205356 2.42857Z" fill="black"/>
</svg>
