<svg width="82" height="82" viewBox="0 0 82 82" fill="none" xmlns="http://www.w3.org/2000/svg">
<path d="M12.8163 43.5522H35.8788C36.5874 43.5522 37.1601 42.9795 37.1601 42.271V37.146C37.1601 36.4375 36.5874 35.8647 35.8788 35.8647H12.8163C12.1078 35.8647 11.5351 36.4375 11.5351 37.146V42.271C11.5351 42.9795 12.1078 43.5522 12.8163 43.5522ZM14.0976 38.4272H34.5976V40.9897H14.0976V38.4272Z" fill="url(#paint0_linear)"/>
<path d="M33.3163 46.1147C31.1972 46.1147 29.4726 47.8393 29.4726 49.9585C29.4726 52.0777 31.1972 53.8022 33.3163 53.8022C35.4355 53.8022 37.1601 52.0777 37.1601 49.9585C37.1601 47.8393 35.4355 46.1147 33.3163 46.1147ZM33.3163 51.2397C32.6091 51.2397 32.0351 50.6657 32.0351 49.9585C32.0351 49.2512 32.6091 48.6772 33.3163 48.6772C34.0236 48.6772 34.5976 49.2512 34.5976 49.9585C34.5976 50.6657 34.0236 51.2397 33.3163 51.2397Z" fill="url(#paint1_linear)"/>
<path d="M24.3476 46.1147C22.2284 46.1147 20.5038 47.8393 20.5038 49.9585C20.5038 52.0777 22.2284 53.8022 24.3476 53.8022C26.4668 53.8022 28.1913 52.0777 28.1913 49.9585C28.1913 47.8393 26.4668 46.1147 24.3476 46.1147ZM24.3476 51.2397C23.6403 51.2397 23.0663 50.6657 23.0663 49.9585C23.0663 49.2512 23.6403 48.6772 24.3476 48.6772C25.0548 48.6772 25.6288 49.2512 25.6288 49.9585C25.6288 50.6657 25.0548 51.2397 24.3476 51.2397Z" fill="url(#paint2_linear)"/>
<path d="M15.3788 53.8022C17.498 53.8022 19.2226 52.0777 19.2226 49.9585C19.2226 47.8393 17.498 46.1147 15.3788 46.1147C13.2597 46.1147 11.5351 47.8393 11.5351 49.9585C11.5351 52.0777 13.2597 53.8022 15.3788 53.8022ZM15.3788 48.6772C16.0861 48.6772 16.6601 49.2512 16.6601 49.9585C16.6601 50.6657 16.0861 51.2397 15.3788 51.2397C14.6716 51.2397 14.0976 50.6657 14.0976 49.9585C14.0976 49.2512 14.6716 48.6772 15.3788 48.6772Z" fill="url(#paint3_linear)"/>
<path d="M33.3163 55.0835C31.1972 55.0835 29.4726 56.8081 29.4726 58.9272C29.4726 61.0464 31.1972 62.771 33.3163 62.771C35.4355 62.771 37.1601 61.0464 37.1601 58.9272C37.1601 56.8081 35.4355 55.0835 33.3163 55.0835ZM33.3163 60.2085C32.6091 60.2085 32.0351 59.6345 32.0351 58.9272C32.0351 58.22 32.6091 57.646 33.3163 57.646C34.0236 57.646 34.5976 58.22 34.5976 58.9272C34.5976 59.6345 34.0236 60.2085 33.3163 60.2085Z" fill="url(#paint4_linear)"/>
<path d="M24.3476 55.0835C22.2284 55.0835 20.5038 56.8081 20.5038 58.9272C20.5038 61.0464 22.2284 62.771 24.3476 62.771C26.4668 62.771 28.1913 61.0464 28.1913 58.9272C28.1913 56.8081 26.4668 55.0835 24.3476 55.0835ZM24.3476 60.2085C23.6403 60.2085 23.0663 59.6345 23.0663 58.9272C23.0663 58.22 23.6403 57.646 24.3476 57.646C25.0548 57.646 25.6288 58.22 25.6288 58.9272C25.6288 59.6345 25.0548 60.2085 24.3476 60.2085Z" fill="url(#paint5_linear)"/>
<path d="M15.3788 62.771C17.498 62.771 19.2226 61.0464 19.2226 58.9272C19.2226 56.8081 17.498 55.0835 15.3788 55.0835C13.2597 55.0835 11.5351 56.8081 11.5351 58.9272C11.5351 61.0464 13.2597 62.771 15.3788 62.771ZM15.3788 57.646C16.0861 57.646 16.6601 58.22 16.6601 58.9272C16.6601 59.6345 16.0861 60.2085 15.3788 60.2085C14.6716 60.2085 14.0976 59.6345 14.0976 58.9272C14.0976 58.22 14.6716 57.646 15.3788 57.646Z" fill="url(#paint6_linear)"/>
<path d="M33.3163 64.0522C31.1972 64.0522 29.4726 65.7768 29.4726 67.896C29.4726 70.0152 31.1972 71.7397 33.3163 71.7397C35.4355 71.7397 37.1601 70.0152 37.1601 67.896C37.1601 65.7768 35.4355 64.0522 33.3163 64.0522ZM33.3163 69.1772C32.6091 69.1772 32.0351 68.6032 32.0351 67.896C32.0351 67.1887 32.6091 66.6147 33.3163 66.6147C34.0236 66.6147 34.5976 67.1887 34.5976 67.896C34.5976 68.6032 34.0236 69.1772 33.3163 69.1772Z" fill="url(#paint7_linear)"/>
<path d="M24.3476 64.0522C22.2284 64.0522 20.5038 65.7768 20.5038 67.896C20.5038 70.0152 22.2284 71.7397 24.3476 71.7397C26.4668 71.7397 28.1913 70.0152 28.1913 67.896C28.1913 65.7768 26.4668 64.0522 24.3476 64.0522ZM24.3476 69.1772C23.6403 69.1772 23.0663 68.6032 23.0663 67.896C23.0663 67.1887 23.6403 66.6147 24.3476 66.6147C25.0548 66.6147 25.6288 67.1887 25.6288 67.896C25.6288 68.6032 25.0548 69.1772 24.3476 69.1772Z" fill="url(#paint8_linear)"/>
<path d="M15.3788 71.7397C17.498 71.7397 19.2226 70.0152 19.2226 67.896C19.2226 65.7768 17.498 64.0522 15.3788 64.0522C13.2597 64.0522 11.5351 65.7768 11.5351 67.896C11.5351 70.0152 13.2597 71.7397 15.3788 71.7397ZM15.3788 66.6147C16.0861 66.6147 16.6601 67.1887 16.6601 67.896C16.6601 68.6032 16.0861 69.1772 15.3788 69.1772C14.6716 69.1772 14.0976 68.6032 14.0976 67.896C14.0976 67.1887 14.6716 66.6147 15.3788 66.6147Z" fill="url(#paint9_linear)"/>
<path d="M53.7971 19.2342H53.701C53.2987 16.0836 51.4294 13.2738 48.6721 11.6684V11.129C48.6721 11.0637 48.6452 11.006 48.635 10.9432C48.6209 10.8497 48.6132 10.7562 48.5799 10.6678C48.5491 10.587 48.4979 10.5217 48.4505 10.4487C48.4082 10.382 48.3736 10.3141 48.3185 10.2565C48.248 10.1809 48.1622 10.1296 48.0763 10.0733C48.0289 10.0425 47.9943 9.99638 47.9418 9.97203C47.929 9.96563 47.9149 9.96178 47.9034 9.95538C47.8931 9.95153 47.8842 9.94769 47.8739 9.94385C45.1577 8.67157 41.952 8.67028 39.2191 9.94C39.2127 9.94257 39.2062 9.94385 39.1998 9.94769C39.1857 9.9541 39.1729 9.95794 39.1588 9.96435C39.0999 9.99125 39.0615 10.0425 39.0089 10.0771C38.9282 10.1309 38.8462 10.1783 38.7796 10.2475C38.7245 10.3077 38.6899 10.3782 38.6463 10.4448C38.6002 10.5166 38.549 10.5806 38.5169 10.6613C38.4836 10.7485 38.4772 10.842 38.4618 10.9355C38.4516 10.9996 38.4247 11.0573 38.4247 11.1226V11.6633C35.6623 13.2687 33.7891 16.0798 33.3855 19.2329H33.2971C32.5886 19.2329 32.0159 19.8056 32.0159 20.5142V24.3579C32.0159 25.0664 32.5886 25.6392 33.2971 25.6392H53.7971C54.5056 25.6392 55.0784 25.0664 55.0784 24.3579V20.5142C55.0784 19.8069 54.5056 19.2342 53.7971 19.2342ZM38.4247 14.7857V15.3879C38.4247 16.0964 38.9974 16.6691 39.7059 16.6691C40.4145 16.6691 40.9872 16.0964 40.9872 15.3879V11.9849C42.6413 11.4032 44.4632 11.4058 46.1096 11.9874V15.3879C46.1096 16.0964 46.6823 16.6691 47.3909 16.6691C48.0994 16.6691 48.6721 16.0964 48.6721 15.3879V14.7934C49.9546 15.9503 50.8169 17.5199 51.1103 19.2342H35.9762C36.2722 17.516 37.137 15.9427 38.4247 14.7857ZM52.5159 23.0779H34.5784V21.7967H52.5159V23.0779Z" fill="url(#paint10_linear)"/>
<path d="M61.4974 35.8827H65.3412C66.0497 35.8827 66.6224 35.3099 66.6224 34.6014C66.6224 33.8929 66.0497 33.3202 65.3412 33.3202H61.4974C60.7889 33.3202 60.2162 33.8929 60.2162 34.6014C60.2162 35.3099 60.7889 35.8827 61.4974 35.8827Z" fill="url(#paint11_linear)"/>
<path d="M65.3412 39.7264H60.2149C59.5064 39.7264 58.9337 40.2991 58.9337 41.0077C58.9337 41.7162 59.5064 42.2889 60.2149 42.2889H65.3412C66.0497 42.2889 66.6224 41.7162 66.6224 41.0077C66.6224 40.2991 66.0497 39.7264 65.3412 39.7264Z" fill="url(#paint12_linear)"/>
<path d="M65.3412 46.1327H61.4974C60.7889 46.1327 60.2162 46.7054 60.2162 47.4139C60.2162 48.1225 60.7889 48.6952 61.4974 48.6952H65.3412C66.0497 48.6952 66.6224 48.1225 66.6224 47.4139C66.6224 46.7054 66.0497 46.1327 65.3412 46.1327Z" fill="url(#paint13_linear)"/>
<path d="M65.3412 52.5389H62.78C62.0714 52.5389 61.4987 53.1116 61.4987 53.8202C61.4987 54.5287 62.0714 55.1014 62.78 55.1014H65.3412C66.0497 55.1014 66.6224 54.5287 66.6224 53.8202C66.6224 53.1116 66.0497 52.5389 65.3412 52.5389Z" fill="url(#paint14_linear)"/>
<path d="M65.3412 58.9453H61.4974C60.7889 58.9453 60.2162 59.5181 60.2162 60.2266C60.2162 60.9351 60.7889 61.5078 61.4974 61.5078H65.3412C66.0497 61.5078 66.6224 60.9351 66.6224 60.2266C66.6224 59.5181 66.0497 58.9453 65.3412 58.9453Z" fill="url(#paint15_linear)"/>
<path d="M65.3412 65.3516H60.2149C59.5064 65.3516 58.9337 65.9243 58.9337 66.6328C58.9337 67.3414 59.5064 67.9141 60.2149 67.9141H65.3412C66.0497 67.9141 66.6224 67.3414 66.6224 66.6328C66.6224 65.9243 66.0497 65.3516 65.3412 65.3516Z" fill="url(#paint16_linear)"/>
<path d="M75.5873 10.2526C75.5861 10.0898 75.554 9.92841 75.4913 9.77594C75.4259 9.61835 75.3324 9.47613 75.2132 9.35826L66.2483 0.386943C66.1304 0.267787 65.9882 0.174256 65.8306 0.108912C65.6743 0.0435683 65.5078 0.0102558 65.3412 0.0102558H24.3476C23.6391 0.0102558 23.0663 0.582975 23.0663 1.29151V30.7398H10.2538C8.13466 30.7398 6.4101 32.4643 6.4101 34.5835V39.7085V73.021V78.146C6.4101 80.2652 8.13466 81.9898 10.2538 81.9898H38.4413C40.5605 81.9898 42.2851 80.2652 42.2851 78.146V76.8596H74.3087C75.0172 76.8596 75.5899 76.2869 75.5899 75.5784V10.2679C75.5899 10.2679 75.5899 10.2679 75.5899 10.2667V10.2654C75.5899 10.2603 75.5873 10.2564 75.5873 10.2526ZM66.6224 4.38573L71.217 8.98413H66.6224V4.38573ZM8.9726 34.5835C8.9726 33.8763 9.5466 33.3023 10.2538 33.3023H38.4413C39.1486 33.3023 39.7226 33.8763 39.7226 34.5835V39.7085V73.021C39.7226 73.7283 39.1486 74.3023 38.4413 74.3023H10.2538C9.5466 74.3023 8.9726 73.7283 8.9726 73.021V39.7085V34.5835ZM38.4413 79.4273H10.2538C9.5466 79.4273 8.9726 78.8533 8.9726 78.146V76.6277C9.37491 76.7712 9.80156 76.8648 10.2538 76.8648H38.4413C38.8936 76.8648 39.3203 76.7725 39.7226 76.6277V78.146C39.7226 78.8533 39.1486 79.4273 38.4413 79.4273ZM42.2851 73.021V67.9139H53.8061C54.5146 67.9139 55.0873 67.3412 55.0873 66.6327C55.0873 65.9242 54.5146 65.3514 53.8061 65.3514H42.2851V61.5077H53.8061C54.5146 61.5077 55.0873 60.935 55.0873 60.2264C55.0873 59.5179 54.5146 58.9452 53.8061 58.9452H42.2851V55.1014H53.8061C54.5146 55.1014 55.0873 54.5287 55.0873 53.8202C55.0873 53.1117 54.5146 52.5389 53.8061 52.5389H42.2851V48.6952H53.8061C54.5146 48.6952 55.0873 48.1225 55.0873 47.4139C55.0873 46.7054 54.5146 46.1327 53.8061 46.1327H42.2851V42.2889H53.8061C54.5146 42.2889 55.0873 41.7162 55.0873 41.0077C55.0873 40.2992 54.5146 39.7264 53.8061 39.7264H42.2851V39.7085V35.8827H53.8061C54.5146 35.8827 55.0873 35.31 55.0873 34.6014C55.0873 33.8929 54.5146 33.3202 53.8061 33.3202H42.0545C41.5279 31.8224 40.1147 30.7398 38.4413 30.7398H25.6288V2.57276H64.0599V10.2654C64.0599 10.9739 64.6327 11.5466 65.3412 11.5466H73.0274V74.2984H42.2851V73.021Z" fill="url(#paint17_linear)"/>
<defs>
<linearGradient id="paint0_linear" x1="24.3476" y1="35.8647" x2="24.3476" y2="43.5522" gradientUnits="userSpaceOnUse">
<stop stop-color="#FFD600"/>
<stop offset="1"/>
</linearGradient>
<linearGradient id="paint1_linear" x1="33.3163" y1="46.1147" x2="33.3163" y2="53.8022" gradientUnits="userSpaceOnUse">
<stop stop-color="#FFD600"/>
<stop offset="1"/>
</linearGradient>
<linearGradient id="paint2_linear" x1="24.3476" y1="46.1147" x2="24.3476" y2="53.8022" gradientUnits="userSpaceOnUse">
<stop stop-color="#FFD600"/>
<stop offset="1"/>
</linearGradient>
<linearGradient id="paint3_linear" x1="15.3788" y1="46.1147" x2="15.3788" y2="53.8022" gradientUnits="userSpaceOnUse">
<stop stop-color="#FFD600"/>
<stop offset="1"/>
</linearGradient>
<linearGradient id="paint4_linear" x1="33.3163" y1="55.0835" x2="33.3163" y2="62.771" gradientUnits="userSpaceOnUse">
<stop stop-color="#FFD600"/>
<stop offset="1"/>
</linearGradient>
<linearGradient id="paint5_linear" x1="24.3476" y1="55.0835" x2="24.3476" y2="62.771" gradientUnits="userSpaceOnUse">
<stop stop-color="#FFD600"/>
<stop offset="1"/>
</linearGradient>
<linearGradient id="paint6_linear" x1="15.3788" y1="55.0835" x2="15.3788" y2="62.771" gradientUnits="userSpaceOnUse">
<stop stop-color="#FFD600"/>
<stop offset="1"/>
</linearGradient>
<linearGradient id="paint7_linear" x1="33.3163" y1="64.0522" x2="33.3163" y2="71.7397" gradientUnits="userSpaceOnUse">
<stop stop-color="#FFD600"/>
<stop offset="1"/>
</linearGradient>
<linearGradient id="paint8_linear" x1="24.3476" y1="64.0522" x2="24.3476" y2="71.7397" gradientUnits="userSpaceOnUse">
<stop stop-color="#FFD600"/>
<stop offset="1"/>
</linearGradient>
<linearGradient id="paint9_linear" x1="15.3788" y1="64.0522" x2="15.3788" y2="71.7397" gradientUnits="userSpaceOnUse">
<stop stop-color="#FFD600"/>
<stop offset="1"/>
</linearGradient>
<linearGradient id="paint10_linear" x1="43.5471" y1="8.98867" x2="43.5471" y2="25.6392" gradientUnits="userSpaceOnUse">
<stop stop-color="#FFD600"/>
<stop offset="1"/>
</linearGradient>
<linearGradient id="paint11_linear" x1="63.4193" y1="33.3202" x2="63.4193" y2="35.8827" gradientUnits="userSpaceOnUse">
<stop stop-color="#FFD600"/>
<stop offset="1"/>
</linearGradient>
<linearGradient id="paint12_linear" x1="62.778" y1="39.7264" x2="62.778" y2="42.2889" gradientUnits="userSpaceOnUse">
<stop stop-color="#FFD600"/>
<stop offset="1"/>
</linearGradient>
<linearGradient id="paint13_linear" x1="63.4193" y1="46.1327" x2="63.4193" y2="48.6952" gradientUnits="userSpaceOnUse">
<stop stop-color="#FFD600"/>
<stop offset="1"/>
</linearGradient>
<linearGradient id="paint14_linear" x1="64.0606" y1="52.5389" x2="64.0606" y2="55.1014" gradientUnits="userSpaceOnUse">
<stop stop-color="#FFD600"/>
<stop offset="1"/>
</linearGradient>
<linearGradient id="paint15_linear" x1="63.4193" y1="58.9453" x2="63.4193" y2="61.5078" gradientUnits="userSpaceOnUse">
<stop stop-color="#FFD600"/>
<stop offset="1"/>
</linearGradient>
<linearGradient id="paint16_linear" x1="62.778" y1="65.3516" x2="62.778" y2="67.9141" gradientUnits="userSpaceOnUse">
<stop stop-color="#FFD600"/>
<stop offset="1"/>
</linearGradient>
<linearGradient id="paint17_linear" x1="41" y1="0.0102558" x2="41" y2="81.9898" gradientUnits="userSpaceOnUse">
<stop stop-color="#FFD600"/>
<stop offset="1"/>
</linearGradient>
</defs>
</svg>
