<svg width="85" height="85" viewBox="0 0 85 85" fill="none" xmlns="http://www.w3.org/2000/svg">
<path d="M73.7325 58.2453L65.6705 69.8283L59.9812 65.1591C59.3675 64.652 58.4584 64.7442 57.9542 65.3579C57.4485 65.9731 57.5378 66.8821 58.1544 67.3849L65.0495 73.0453C65.3088 73.2586 65.6316 73.3738 65.9629 73.3738C66.0277 73.3738 66.094 73.3695 66.1603 73.3594C66.5579 73.3047 66.9152 73.0857 67.1457 72.7558L76.0981 59.892C76.5519 59.2393 76.392 58.3418 75.7379 57.8865C75.0824 57.427 74.1863 57.5912 73.7325 58.2453Z" fill="url(#paint0_linear)"/>
<path d="M74.9153 49.6731V21.6102V7.20339C74.9153 6.40669 74.2698 5.76271 73.4746 5.76271H66.2712V1.44068C66.2712 0.643983 65.6258 0 64.8305 0H54.7458C53.9505 0 53.3051 0.643983 53.3051 1.44068V5.76271H21.6102V1.44068C21.6102 0.643983 20.9647 0 20.1695 0H10.0847C9.28949 0 8.64407 0.643983 8.64407 1.44068V5.76271H1.44068C0.645424 5.76271 0 6.40669 0 7.20339V21.6102V80.678C0 81.4747 0.645424 82.1186 1.44068 82.1186H56.3363C59.2205 83.9339 62.6205 85 66.2712 85C76.598 85 85 76.598 85 66.2712C85 59.0635 80.8998 52.8023 74.9153 49.6731ZM56.1864 2.88136H63.3898V7.20339V11.5254H56.1864V7.20339V2.88136ZM11.5254 2.88136H18.7288V7.20339V11.5254H11.5254V7.20339V2.88136ZM2.88136 8.64407H8.64407V12.9661C8.64407 13.7628 9.28949 14.4068 10.0847 14.4068H20.1695C20.9647 14.4068 21.6102 13.7628 21.6102 12.9661V8.64407H53.3051V12.9661C53.3051 13.7628 53.9505 14.4068 54.7458 14.4068H64.8305C65.6258 14.4068 66.2712 13.7628 66.2712 12.9661V8.64407H72.0339V20.1695H2.88136V8.64407ZM2.88136 79.2373V23.0508H72.0339V48.4586C71.7515 48.3679 71.4634 48.2944 71.1753 48.2152C70.9087 48.1417 70.6422 48.0697 70.3728 48.0077C70.1293 47.953 69.883 47.9054 69.6366 47.8608C69.2851 47.7959 68.9321 47.7426 68.5777 47.698C68.3803 47.6735 68.1844 47.6461 67.9856 47.6274C67.418 47.5769 66.846 47.5424 66.2712 47.5424C65.7842 47.5424 65.3074 47.5784 64.8305 47.6158V46.1017V43.2203V30.2542H51.8644H48.9831H38.8983H36.0169H25.9322H23.0508H10.0847V43.2203V46.1017V56.1864V59.0678V72.0339H23.0508H25.9322H36.0169H38.8983H48.4586C48.5004 72.1607 48.5523 72.2831 48.5955 72.4085C48.7165 72.7586 48.8361 73.1101 48.9787 73.4515C49.058 73.6431 49.1516 73.8261 49.238 74.0134C49.4037 74.3793 49.5723 74.7438 49.761 75.0982C49.8446 75.2524 49.9382 75.4008 50.0261 75.5535C50.2393 75.9266 50.4554 76.2954 50.6946 76.6527C50.7825 76.7838 50.879 76.9077 50.9697 77.0374C51.2233 77.3975 51.4826 77.7548 51.7636 78.0977C51.8673 78.2245 51.9797 78.3426 52.0863 78.4665C52.3096 78.7259 52.5228 78.9909 52.7605 79.2387H2.88136V79.2373ZM58.0781 49.4556C57.9225 49.5305 57.764 49.6011 57.6113 49.6803C57.3404 49.8215 57.0782 49.9771 56.816 50.1313C56.587 50.2653 56.3579 50.4021 56.1346 50.5447C55.9084 50.6917 55.688 50.8415 55.469 50.9971C55.2197 51.1729 54.9777 51.3573 54.7371 51.5446C54.5441 51.6959 54.351 51.8457 54.1652 52.0056C53.9131 52.2188 53.6725 52.445 53.4319 52.6712C53.2662 52.8282 53.0947 52.9795 52.9348 53.1409C52.6741 53.4059 52.4277 53.6869 52.1828 53.9678C52.0791 54.0874 51.9653 54.1969 51.863 54.3193V46.1017H61.9477V48.0639C61.9232 48.0697 61.9002 48.0783 61.8771 48.0841C60.5503 48.4053 59.2796 48.8678 58.0781 49.4556ZM48.3636 60.7952C48.3131 60.9608 48.28 61.1308 48.2339 61.298C48.1186 61.7158 48.0005 62.1336 47.9141 62.5643C47.8464 62.8971 47.8089 63.2371 47.7599 63.5742C47.721 63.8465 47.6663 64.1145 47.6375 64.3911C47.5755 65.012 47.5424 65.6402 47.5424 66.2712C47.5424 66.7913 47.5712 67.3171 47.6187 67.8444C47.6274 67.9409 47.6274 68.0389 47.6375 68.1354C47.6605 68.3688 47.7066 68.595 47.7383 68.8255V68.827C47.7542 68.9364 47.7599 69.0445 47.7772 69.1525H38.8983V59.0678H48.9831V59.0779C48.9686 59.1125 48.96 59.1485 48.9456 59.1831C48.7295 59.7089 48.5321 60.2463 48.3636 60.7952ZM12.9661 59.0678H23.0508V69.1525H12.9661V59.0678ZM12.9661 46.1017H23.0508V56.1864H12.9661V46.1017ZM61.9492 43.2203H51.8644V33.1356H61.9492V43.2203ZM48.9831 43.2203H38.8983V33.1356H48.9831V43.2203ZM48.9831 56.1864H38.8983V46.1017H48.9831V56.1864ZM25.9322 46.1017H36.0169V56.1864H25.9322V46.1017ZM36.0169 43.2203H25.9322V33.1356H36.0169V43.2203ZM23.0508 43.2203H12.9661V33.1356H23.0508V43.2203ZM25.9322 59.0678H36.0169V69.1525H25.9322V59.0678ZM66.2712 82.1186C63.0181 82.1186 59.9913 81.1303 57.473 79.4419C56.9817 79.1134 56.5178 78.7561 56.0726 78.3815C55.917 78.249 55.7701 78.1078 55.6203 77.9695C55.3364 77.7116 55.0613 77.4465 54.7991 77.1714C54.6305 76.9942 54.4677 76.8141 54.3078 76.6311C54.0715 76.3588 53.8497 76.0779 53.6336 75.7912C53.4953 75.6082 53.3526 75.431 53.2215 75.2423C52.9031 74.7798 52.6035 74.3044 52.3355 73.8117C52.2736 73.6964 52.2246 73.5754 52.1655 73.4587C51.9552 73.0467 51.7592 72.6289 51.5849 72.1996C51.51 72.0123 51.4452 71.8207 51.376 71.6305C51.2406 71.2531 51.1167 70.8698 51.0086 70.4823C50.9841 70.393 50.9625 70.3036 50.9395 70.2143C50.7767 69.5804 50.6571 68.9509 50.5721 68.3242C50.5664 68.2795 50.5577 68.2348 50.552 68.1887C50.4684 67.5419 50.4237 66.9008 50.4237 66.2712C50.4237 65.7252 50.4511 65.1835 50.5073 64.6461C50.5116 64.6014 50.5231 64.5582 50.5275 64.5136C50.5822 64.0223 50.6542 63.5325 50.7551 63.0498C50.7652 63.0037 50.781 62.9591 50.7911 62.913C50.8948 62.4347 51.0173 61.9592 51.1657 61.4896C51.183 61.4348 51.2075 61.3815 51.2247 61.3268C51.3731 60.8773 51.5374 60.4307 51.7275 59.9927C51.9062 59.5807 52.0992 59.1758 52.311 58.7825L52.4536 58.5362C52.5113 58.4325 52.579 58.3345 52.6395 58.2322C52.8902 57.8101 53.1581 57.4009 53.442 57.0062C53.5125 56.9082 53.586 56.8117 53.6595 56.7152C53.9188 56.3723 54.1925 56.0424 54.4778 55.724C54.5772 55.6131 54.6766 55.5007 54.7789 55.3926C55.0613 55.093 55.3581 54.8092 55.662 54.534C55.7701 54.436 55.8753 54.3352 55.9862 54.2401C56.3435 53.9347 56.7137 53.648 57.0955 53.3757C57.156 53.3325 57.2136 53.2849 57.2742 53.2417C59.1542 51.9422 61.3138 51.0519 63.6304 50.6629L63.6607 50.6586C64.5107 50.5159 65.3794 50.4237 66.2712 50.4237C66.8316 50.4237 67.3892 50.454 67.9424 50.5145C68.0288 50.5231 68.1124 50.5433 68.1988 50.5534C68.6714 50.6125 69.1425 50.6831 69.6078 50.7839C69.6654 50.7969 69.7202 50.8142 69.7764 50.8271C70.2719 50.9409 70.7632 51.0735 71.2487 51.2363C71.2819 51.2478 71.3136 51.2608 71.3467 51.2723C71.8437 51.4423 72.3336 51.6368 72.8191 51.8572C78.2965 54.3553 82.1186 59.8703 82.1186 66.2712C82.1186 75.0089 75.0089 82.1186 66.2712 82.1186Z" fill="url(#paint1_linear)"/>
<defs>
<linearGradient id="paint0_linear" x1="66.9913" y1="57.6255" x2="66.9913" y2="73.3738" gradientUnits="userSpaceOnUse">
<stop stop-color="#FFD600"/>
<stop offset="1"/>
</linearGradient>
<linearGradient id="paint1_linear" x1="42.5" y1="0" x2="42.5" y2="85" gradientUnits="userSpaceOnUse">
<stop stop-color="#FFD600"/>
<stop offset="1"/>
</linearGradient>
</defs>
</svg>
