<svg width="84" height="84" viewBox="0 0 84 84" fill="none" xmlns="http://www.w3.org/2000/svg">
<path d="M82.3036 42.3838L72.1875 32.2694V18.3749C72.5356 18.3749 72.8694 18.2366 73.1156 17.9905C73.3617 17.7444 73.5 17.4105 73.5 17.0624V13.1249C73.5 12.7768 73.3617 12.443 73.1156 12.1968C72.8694 11.9507 72.5356 11.8124 72.1875 11.8124H61.6875C61.3394 11.8124 61.0056 11.9507 60.7594 12.1968C60.5133 12.443 60.375 12.7768 60.375 13.1249V17.0624C60.375 17.4105 60.5133 17.7444 60.7594 17.9905C61.0056 18.2366 61.3394 18.3749 61.6875 18.3749V21.7694L42.9286 3.00883C42.6821 2.76298 42.3481 2.62491 42 2.62491C41.6519 2.62491 41.3179 2.76298 41.0714 3.00883L32.3859 11.6943C31.0444 9.86181 29.3223 8.34123 27.3378 7.23692C25.3533 6.13261 23.1534 5.47069 20.889 5.2966C18.6246 5.12251 16.3494 5.44035 14.2194 6.22833C12.0894 7.01631 10.1551 8.25577 8.54923 9.86166C6.94335 11.4675 5.70389 13.4018 4.91591 15.5318C4.12793 17.6618 3.81008 19.9371 3.98417 22.2014C4.15827 24.4658 4.82018 26.6657 5.92449 28.6502C7.02881 30.6347 8.54938 32.3568 10.3819 33.6984L1.69641 42.3838C1.45045 42.6303 1.31237 42.9643 1.3125 43.3124V51.1874C1.3123 51.4472 1.38916 51.7011 1.53337 51.9172C1.67757 52.1332 1.88263 52.3016 2.12259 52.401C2.36254 52.5004 2.6266 52.5264 2.88134 52.4757C3.13608 52.425 3.37003 52.2998 3.55359 52.116L9.1875 46.4805V78.7499H2.625C2.2769 78.7499 1.94306 78.8882 1.69692 79.1343C1.45078 79.3805 1.3125 79.7143 1.3125 80.0624C1.3125 80.4105 1.45078 80.7444 1.69692 80.9905C1.94306 81.2366 2.2769 81.3749 2.625 81.3749H76.125C76.4731 81.3749 76.8069 81.2366 77.0531 80.9905C77.2992 80.7444 77.4375 80.4105 77.4375 80.0624C77.4375 79.7143 77.2992 79.3805 77.0531 79.1343C76.8069 78.8882 76.4731 78.7499 76.125 78.7499H74.8125V46.4805L80.4464 52.116C80.63 52.2998 80.8639 52.425 81.1187 52.4757C81.3734 52.5264 81.6375 52.5004 81.8774 52.401C82.1174 52.3016 82.3224 52.1332 82.4666 51.9172C82.6108 51.7011 82.6877 51.4472 82.6875 51.1874V43.3124C82.6876 42.9643 82.5496 42.6303 82.3036 42.3838ZM63 14.4374H70.875V15.7499H63V14.4374ZM69.5625 18.3749V29.6444L64.3125 24.3944V18.3749H69.5625ZM6.5625 20.9999C6.5625 18.404 7.33227 15.8665 8.77446 13.7081C10.2167 11.5497 12.2665 9.86741 14.6648 8.87401C17.0631 7.88061 19.7021 7.62069 22.2481 8.12712C24.7941 8.63355 27.1327 9.88359 28.9683 11.7192C30.8038 13.5547 32.0539 15.8934 32.5603 18.4394C33.0667 20.9854 32.8068 23.6244 31.8134 26.0226C30.82 28.4209 29.1378 30.4708 26.9794 31.913C24.821 33.3552 22.2834 34.1249 19.6875 34.1249C16.2078 34.1209 12.8717 32.7368 10.4112 30.2762C7.95064 27.8157 6.56654 24.4797 6.5625 20.9999ZM3.9375 48.0194V43.8555L12.687 35.106C13.6541 35.5878 14.6685 35.9683 15.7139 36.2413L3.9375 48.0194ZM48.5625 78.7499H35.4375V55.1249H48.5625V78.7499ZM72.1875 78.7499H51.1875V53.8124C51.1875 53.4643 51.0492 53.1305 50.8031 52.8843C50.5569 52.6382 50.2231 52.4999 49.875 52.4999H34.125C33.7769 52.4999 33.4431 52.6382 33.1969 52.8843C32.9508 53.1305 32.8125 53.4643 32.8125 53.8124V78.7499H11.8125V43.8555L18.9377 36.7319C19.1855 36.7434 19.4365 36.7499 19.6875 36.7499C23.8631 36.7449 27.8663 35.084 30.8189 32.1313C33.7715 29.1787 35.4325 25.1756 35.4375 20.9999C35.4375 20.7489 35.4309 20.4979 35.4195 20.2502L41.3142 14.3554L42 13.7287L42.6858 14.3554L72.1875 43.8555V78.7499ZM80.0625 48.0194L42.9286 10.8838C42.6821 10.638 42.3481 10.4999 42 10.4999C41.6519 10.4999 41.3179 10.638 41.0714 10.8838L34.9289 17.0263C34.6559 15.9809 34.2754 14.9665 33.7936 13.9994L42 5.79297L80.0625 43.8555V48.0194Z" fill="url(#paint0_linear)"/>
<path d="M36.75 32.8125C36.4019 32.8125 36.0681 32.9508 35.8219 33.1969C35.5758 33.4431 35.4375 33.7769 35.4375 34.125V44.625C35.4375 44.9731 35.5758 45.3069 35.8219 45.5531C36.0681 45.7992 36.4019 45.9375 36.75 45.9375H47.25C47.5981 45.9375 47.9319 45.7992 48.1781 45.5531C48.4242 45.3069 48.5625 44.9731 48.5625 44.625V34.125C48.5625 33.7769 48.4242 33.4431 48.1781 33.1969C47.9319 32.9508 47.5981 32.8125 47.25 32.8125H36.75ZM45.9375 38.0625H43.3125V35.4375H45.9375V38.0625ZM40.6875 35.4375V38.0625H38.0625V35.4375H40.6875ZM38.0625 40.6875H40.6875V43.3125H38.0625V40.6875ZM43.3125 43.3125V40.6875H45.9375V43.3125H43.3125Z" fill="url(#paint1_linear)"/>
<path d="M45.9375 64.3125C45.5894 64.3125 45.2556 64.4508 45.0094 64.6969C44.7633 64.9431 44.625 65.2769 44.625 65.625V70.875C44.625 71.2231 44.7633 71.5569 45.0094 71.8031C45.2556 72.0492 45.5894 72.1875 45.9375 72.1875C46.2856 72.1875 46.6194 72.0492 46.8656 71.8031C47.1117 71.5569 47.25 71.2231 47.25 70.875V65.625C47.25 65.2769 47.1117 64.9431 46.8656 64.6969C46.6194 64.4508 46.2856 64.3125 45.9375 64.3125Z" fill="url(#paint2_linear)"/>
<path d="M68.25 65.625V53.8125C68.25 53.4644 68.1117 53.1306 67.8656 52.8844C67.6194 52.6383 67.2856 52.5 66.9375 52.5H56.4375C56.0894 52.5 55.7556 52.6383 55.5094 52.8844C55.2633 53.1306 55.125 53.4644 55.125 53.8125V65.625C54.7769 65.625 54.4431 65.7633 54.1969 66.0094C53.9508 66.2556 53.8125 66.5894 53.8125 66.9375V70.875C53.8125 71.2231 53.9508 71.5569 54.1969 71.8031C54.4431 72.0492 54.7769 72.1875 55.125 72.1875H68.25C68.5981 72.1875 68.9319 72.0492 69.1781 71.8031C69.4242 71.5569 69.5625 71.2231 69.5625 70.875V66.9375C69.5625 66.5894 69.4242 66.2556 69.1781 66.0094C68.9319 65.7633 68.5981 65.625 68.25 65.625ZM57.75 55.125H65.625V65.625H57.75V55.125ZM66.9375 69.5625H56.4375V68.25H66.9375V69.5625Z" fill="url(#paint3_linear)"/>
<path d="M28.875 65.625V53.8125C28.875 53.4644 28.7367 53.1306 28.4906 52.8844C28.2444 52.6383 27.9106 52.5 27.5625 52.5H17.0625C16.7144 52.5 16.3806 52.6383 16.1344 52.8844C15.8883 53.1306 15.75 53.4644 15.75 53.8125V65.625C15.4019 65.625 15.0681 65.7633 14.8219 66.0094C14.5758 66.2556 14.4375 66.5894 14.4375 66.9375V70.875C14.4375 71.2231 14.5758 71.5569 14.8219 71.8031C15.0681 72.0492 15.4019 72.1875 15.75 72.1875H28.875C29.2231 72.1875 29.5569 72.0492 29.8031 71.8031C30.0492 71.5569 30.1875 71.2231 30.1875 70.875V66.9375C30.1875 66.5894 30.0492 66.2556 29.8031 66.0094C29.5569 65.7633 29.2231 65.625 28.875 65.625ZM18.375 55.125H26.25V65.625H18.375V55.125ZM27.5625 69.5625H17.0625V68.25H27.5625V69.5625Z" fill="url(#paint4_linear)"/>
<path d="M13.7094 24.7169L17.6469 27.3419C17.885 27.5006 18.1684 27.5772 18.454 27.56C18.7397 27.5427 19.0118 27.4326 19.2291 27.2464L28.4166 19.3714C28.6777 19.1439 28.8384 18.8225 28.8636 18.4772C28.8887 18.1318 28.7764 17.7905 28.5511 17.5276C28.3257 17.2646 28.0056 17.1014 27.6605 17.0735C27.3153 17.0455 26.9731 17.1551 26.7084 17.3784L18.2756 24.6061L15.1656 22.5329C15.0222 22.4362 14.8611 22.3687 14.6916 22.3345C14.5221 22.3002 14.3475 22.2998 14.1778 22.3333C14.0081 22.3667 13.8467 22.4334 13.7029 22.5294C13.559 22.6255 13.4356 22.749 13.3397 22.8929C13.2437 23.0368 13.1772 23.1982 13.1438 23.3679C13.1105 23.5376 13.111 23.7122 13.1453 23.8817C13.1797 24.0512 13.2472 24.2123 13.344 24.3556C13.4408 24.4989 13.565 24.6217 13.7094 24.7169Z" fill="url(#paint5_linear)"/>
<defs>
<linearGradient id="paint0_linear" x1="42" y1="2.62491" x2="42" y2="81.3749" gradientUnits="userSpaceOnUse">
<stop stop-color="#FFD600"/>
<stop offset="1"/>
</linearGradient>
<linearGradient id="paint1_linear" x1="42" y1="32.8125" x2="42" y2="45.9375" gradientUnits="userSpaceOnUse">
<stop stop-color="#FFD600"/>
<stop offset="1"/>
</linearGradient>
<linearGradient id="paint2_linear" x1="45.9375" y1="64.3125" x2="45.9375" y2="72.1875" gradientUnits="userSpaceOnUse">
<stop stop-color="#FFD600"/>
<stop offset="1"/>
</linearGradient>
<linearGradient id="paint3_linear" x1="61.6875" y1="52.5" x2="61.6875" y2="72.1875" gradientUnits="userSpaceOnUse">
<stop stop-color="#FFD600"/>
<stop offset="1"/>
</linearGradient>
<linearGradient id="paint4_linear" x1="22.3125" y1="52.5" x2="22.3125" y2="72.1875" gradientUnits="userSpaceOnUse">
<stop stop-color="#FFD600"/>
<stop offset="1"/>
</linearGradient>
<linearGradient id="paint5_linear" x1="20.9931" y1="17.0692" x2="20.9931" y2="27.5623" gradientUnits="userSpaceOnUse">
<stop stop-color="#FFD600"/>
<stop offset="1"/>
</linearGradient>
</defs>
</svg>
