<svg width="93" height="93" viewBox="0 0 93 93" fill="none" xmlns="http://www.w3.org/2000/svg">
<path d="M69.7363 50.3665C71.4481 50.3665 72.8357 48.9789 72.8357 47.2671C72.8357 45.5554 71.4481 44.1677 69.7363 44.1677C68.0246 44.1677 66.6369 45.5554 66.6369 47.2671C66.6369 48.9789 68.0246 50.3665 69.7363 50.3665Z" fill="url(#paint0_linear)"/>
<path d="M77.4848 24.0215H52.6897C51.8339 24.0215 51.14 24.7154 51.14 25.5712C51.14 26.4271 51.8339 27.1209 52.6897 27.1209H75.9351V31.77C75.9351 32.6258 76.629 33.3197 77.4848 33.3197C78.3406 33.3197 79.0345 32.6258 79.0345 31.77V25.5712C79.0345 24.7152 78.3406 24.0215 77.4848 24.0215Z" fill="url(#paint1_linear)"/>
<path d="M30.9939 67.4131H15.6845C13.9899 67.4178 12.3637 66.7443 11.1686 65.5427C9.97557 64.3418 9.30359 62.7195 9.29816 61.0268V55.0156C9.29816 54.1597 8.60429 53.4659 7.74847 53.4659C6.89265 53.4659 6.19877 54.1597 6.19877 55.0156V61.0268C6.19954 66.2652 10.4461 70.5118 15.6845 70.5125H30.9939C31.8497 70.5125 32.5436 69.8187 32.5436 68.9628C32.5436 68.107 31.8497 67.4131 30.9939 67.4131Z" fill="url(#paint2_linear)"/>
<path d="M88.379 65.5218C87.4271 64.7551 86.3671 64.1333 85.2333 63.6767V56.5651H89.8824C90.7382 56.5651 91.4321 55.8712 91.4321 55.0154V39.5184C91.4321 38.6626 90.7382 37.9688 89.8824 37.9688H85.2333V19.3724C85.2333 18.5166 84.5394 17.8227 83.6836 17.8227H77.4848V13.1736C77.4848 12.3178 76.791 11.6239 75.9351 11.6239H63.5376V6.97481C63.5376 6.11899 62.8437 5.42512 61.9879 5.42512H7.88021C5.86231 5.43074 3.92809 6.23154 2.49656 7.65358L2.23001 7.92013C0.54375 9.60058 -0.253182 11.9768 0.0790345 14.3343C0.0354493 14.4599 0.00871704 14.5906 0 14.7233V64.5786C0 71.2787 5.43091 76.7104 12.131 76.7112H52.7966C53.6387 83.4924 59.8185 88.307 66.5998 87.4651C68.879 87.1821 71.0346 86.2703 72.8249 84.8316C78.1572 89.1268 85.9617 88.286 90.2569 82.9537C94.552 77.6214 93.7113 69.817 88.379 65.5218ZM88.3327 41.0681V53.4657H68.2967C64.8732 53.4657 62.0979 50.6904 62.0979 47.2669C62.0979 43.8435 64.8732 41.0681 68.2967 41.0681H88.3327ZM4.42128 10.113L4.68628 9.84795C5.53494 9.00298 6.68268 8.52742 7.88021 8.52451H60.4382V11.6239H10.8479C9.99206 11.6239 9.29818 12.3178 9.29818 13.1736C9.29818 14.0294 9.99206 14.7233 10.8479 14.7233H74.3854V17.8227H7.61676C5.12194 17.8223 3.09978 15.7996 3.09997 13.3047C3.10017 12.1076 3.57534 10.9597 4.42128 10.113ZM52.7966 73.6118H12.131C7.14294 73.6118 3.09939 69.5682 3.09939 64.5801C3.09939 64.5796 3.09939 64.5792 3.09939 64.5786V19.4142C4.40579 20.3861 5.98861 20.9143 7.61676 20.9221H82.1339V37.9688H68.2967C63.1614 37.9688 58.9985 42.1316 58.9985 47.2669C58.9985 52.4022 63.1614 56.5651 68.2967 56.5651H82.1339V62.8708C81.62 62.803 81.1026 62.7674 80.5842 62.7639C77.7644 62.7583 75.0284 63.723 72.8357 65.496C67.512 61.2109 59.7224 62.0528 55.4371 67.3766C53.9943 69.169 53.08 71.3283 52.7966 73.6118ZM65.0873 84.4597C59.952 84.4597 55.7891 80.2968 55.7891 75.1615C55.7891 70.0262 59.952 65.8633 65.0873 65.8633C70.2226 65.8633 74.3854 70.0262 74.3854 75.1615C74.3804 80.2945 70.2204 84.4544 65.0873 84.4597ZM80.5842 84.4597C78.5661 84.4618 76.6031 83.802 74.996 82.5814C78.3145 78.1913 78.3145 72.1316 74.996 67.7415C76.6025 66.5198 78.5659 65.86 80.5842 65.8633C85.7195 65.8633 89.8824 70.0262 89.8824 75.1615C89.8824 80.2966 85.7195 84.4597 80.5842 84.4597Z" fill="url(#paint3_linear)"/>
<defs>
<linearGradient id="paint0_linear" x1="69.7363" y1="44.1677" x2="69.7363" y2="50.3665" gradientUnits="userSpaceOnUse">
<stop stop-color="#FFD600"/>
<stop offset="1"/>
</linearGradient>
<linearGradient id="paint1_linear" x1="65.0873" y1="24.0215" x2="65.0873" y2="33.3197" gradientUnits="userSpaceOnUse">
<stop stop-color="#FFD600"/>
<stop offset="1"/>
</linearGradient>
<linearGradient id="paint2_linear" x1="19.3712" y1="53.4659" x2="19.3712" y2="70.5125" gradientUnits="userSpaceOnUse">
<stop stop-color="#FFD600"/>
<stop offset="1"/>
</linearGradient>
<linearGradient id="paint3_linear" x1="46.5" y1="5.42512" x2="46.5" y2="87.5747" gradientUnits="userSpaceOnUse">
<stop stop-color="#FFD600"/>
<stop offset="1"/>
</linearGradient>
</defs>
</svg>
