<svg width="82" height="82" viewBox="0 0 82 82" fill="none" xmlns="http://www.w3.org/2000/svg">
<path d="M78.6611 32.135L61.5 24.7807V10.25C61.4999 9.91022 61.3649 9.58438 61.1246 9.34416L54.7183 2.93791C54.4781 2.69761 54.1523 2.56257 53.8125 2.5625H6.40625C5.38682 2.5625 4.40915 2.96747 3.68831 3.68831C2.96747 4.40915 2.5625 5.38682 2.5625 6.40625V75.5938C2.5625 76.6132 2.96747 77.5908 3.68831 78.3117C4.40915 79.0325 5.38682 79.4375 6.40625 79.4375H57.6562C58.6757 79.4375 59.6533 79.0325 60.3742 78.3117C61.095 77.5908 61.5 76.6132 61.5 75.5938V72.4086L68.1702 67.65C71.6528 65.1573 74.4914 61.8706 76.4508 58.0623C78.4102 54.254 79.434 50.0337 79.4375 45.7509V33.3125C79.4375 33.0618 79.3639 32.8166 79.2259 32.6073C79.0879 32.398 78.8915 32.2338 78.6611 32.135ZM58.9375 10.7804V11.5312H52.5312V5.125H53.2821L58.9375 10.7804ZM57.6562 76.875H6.40625C6.06644 76.875 5.74055 76.74 5.50027 76.4997C5.25999 76.2595 5.125 75.9336 5.125 75.5938V6.40625C5.125 6.06644 5.25999 5.74055 5.50027 5.50027C5.74055 5.25999 6.06644 5.125 6.40625 5.125H49.9688V12.8125C49.9688 13.1523 50.1037 13.4782 50.344 13.7185C50.5843 13.9588 50.9102 14.0938 51.25 14.0938H58.9375V24.7807L41.7764 32.135C41.546 32.2338 41.3496 32.398 41.2116 32.6073C41.0736 32.8166 41 33.0618 41 33.3125V45.7509C41.0035 50.0337 42.0273 54.254 43.9867 58.0623C45.9461 61.8706 48.7847 65.1573 52.2673 67.65L58.9375 72.4086V75.5938C58.9375 75.9336 58.8025 76.2595 58.5622 76.4997C58.3219 76.74 57.9961 76.875 57.6562 76.875ZM76.875 45.7509C76.8712 49.625 75.9446 53.4426 74.172 56.8874C72.3993 60.3322 69.8316 63.3052 66.6814 65.5603L60.2188 70.1753L53.7561 65.5628C50.6056 63.3075 48.0376 60.3341 46.2649 56.8888C44.4923 53.4435 43.5659 49.6255 43.5625 45.7509V34.1568L60.2188 27.019L76.875 34.1568V45.7509Z" fill="url(#paint0_linear)"/>
<path d="M59.7421 30.841L46.9296 35.966C46.6919 36.0613 46.4882 36.2256 46.3448 36.4378C46.2014 36.6499 46.1248 36.9002 46.125 37.1563V45.241C46.1174 48.5088 46.8487 51.7361 48.2643 54.6815C49.6798 57.6268 51.7429 60.214 54.2994 62.2496L59.418 66.3496C59.6452 66.5315 59.9276 66.6306 60.2187 66.6306C60.5099 66.6306 60.7923 66.5315 61.0195 66.3496L66.1381 62.2496C68.6946 60.214 70.7577 57.6268 72.1732 54.6815C73.5888 51.7361 74.3201 48.5088 74.3125 45.241V37.1563C74.3127 36.9002 74.2361 36.6499 74.0927 36.4378C73.9493 36.2256 73.7456 36.0613 73.5079 35.966L60.6954 30.841C60.3893 30.7193 60.0482 30.7193 59.7421 30.841ZM71.75 38.0237V45.241C71.7569 48.1241 71.1118 50.9715 69.8629 53.5701C68.6139 56.1688 66.7935 58.4513 64.5378 60.247L60.2187 63.7038L55.8997 60.2444C53.6443 58.449 51.8241 56.1669 50.5752 53.5687C49.3262 50.9706 48.6809 48.1237 48.6875 45.241V38.0237L60.2187 33.4112L71.75 38.0237Z" fill="url(#paint1_linear)"/>
<path d="M8.96875 25.625H44.8438C45.1836 25.625 45.5094 25.49 45.7497 25.2497C45.99 25.0095 46.125 24.6836 46.125 24.3438V8.96875C46.125 8.62894 45.99 8.30305 45.7497 8.06277C45.5094 7.82249 45.1836 7.6875 44.8438 7.6875H8.96875C8.62894 7.6875 8.30305 7.82249 8.06277 8.06277C7.82249 8.30305 7.6875 8.62894 7.6875 8.96875V24.3438C7.6875 24.6836 7.82249 25.0095 8.06277 25.2497C8.30305 25.49 8.62894 25.625 8.96875 25.625ZM10.25 10.25H43.5625V23.0625H10.25V10.25Z" fill="url(#paint2_linear)"/>
<path d="M37.1562 56.375H8.96875C8.62894 56.375 8.30305 56.51 8.06277 56.7503C7.82249 56.9905 7.6875 57.3164 7.6875 57.6562V73.0312C7.6875 73.3711 7.82249 73.697 8.06277 73.9372C8.30305 74.1775 8.62894 74.3125 8.96875 74.3125H37.1562C37.4961 74.3125 37.822 74.1775 38.0622 73.9372C38.3025 73.697 38.4375 73.3711 38.4375 73.0312V57.6562C38.4375 57.3164 38.3025 56.9905 38.0622 56.7503C37.822 56.51 37.4961 56.375 37.1562 56.375ZM35.875 71.75H10.25V58.9375H35.875V71.75Z" fill="url(#paint3_linear)"/>
<path d="M7.6875 32.0312H38.4375V34.5938H7.6875V32.0312Z" fill="url(#paint4_linear)"/>
<path d="M7.6875 39.7188H38.4375V42.2812H7.6875V39.7188Z" fill="url(#paint5_linear)"/>
<path d="M7.6875 47.4062H38.4375V49.9688H7.6875V47.4062Z" fill="url(#paint6_linear)"/>
<defs>
<linearGradient id="paint0_linear" x1="41" y1="2.5625" x2="41" y2="79.4375" gradientUnits="userSpaceOnUse">
<stop stop-color="#FFD600"/>
<stop offset="1"/>
</linearGradient>
<linearGradient id="paint1_linear" x1="60.2187" y1="30.7498" x2="60.2187" y2="66.6306" gradientUnits="userSpaceOnUse">
<stop stop-color="#FFD600"/>
<stop offset="1"/>
</linearGradient>
<linearGradient id="paint2_linear" x1="26.9062" y1="7.6875" x2="26.9062" y2="25.625" gradientUnits="userSpaceOnUse">
<stop stop-color="#FFD600"/>
<stop offset="1"/>
</linearGradient>
<linearGradient id="paint3_linear" x1="23.0625" y1="56.375" x2="23.0625" y2="74.3125" gradientUnits="userSpaceOnUse">
<stop stop-color="#FFD600"/>
<stop offset="1"/>
</linearGradient>
<linearGradient id="paint4_linear" x1="23.0625" y1="32.0312" x2="23.0625" y2="34.5938" gradientUnits="userSpaceOnUse">
<stop stop-color="#FFD600"/>
<stop offset="1"/>
</linearGradient>
<linearGradient id="paint5_linear" x1="23.0625" y1="39.7188" x2="23.0625" y2="42.2812" gradientUnits="userSpaceOnUse">
<stop stop-color="#FFD600"/>
<stop offset="1"/>
</linearGradient>
<linearGradient id="paint6_linear" x1="23.0625" y1="47.4062" x2="23.0625" y2="49.9688" gradientUnits="userSpaceOnUse">
<stop stop-color="#FFD600"/>
<stop offset="1"/>
</linearGradient>
</defs>
</svg>
