<svg width="82" height="82" viewBox="0 0 82 82" fill="none" xmlns="http://www.w3.org/2000/svg">
<g clip-path="url(#clip0)">
<path d="M14.0903 17.9432C11.9717 17.9432 10.2475 16.219 10.2475 14.1004C10.2475 11.9818 11.9717 10.2576 14.0903 10.2576C14.7986 10.2576 15.3711 10.8302 15.3711 11.5384C15.3711 12.2467 14.7986 12.8193 14.0903 12.8193C13.3832 12.8193 12.8094 13.3931 12.8094 14.1001C12.8094 14.8072 13.3832 15.381 14.0903 15.381C14.7986 15.381 15.3711 15.9536 15.3711 16.6618C15.3711 17.3706 14.7986 17.9432 14.0903 17.9432Z" fill="url(#paint0_linear)"/>
<path d="M37.1456 17.9447C36.4373 17.9447 35.8647 17.3722 35.8647 16.6639C35.8647 15.9556 36.4373 15.383 37.1456 15.383C39.2641 15.383 40.9884 13.6588 40.9884 11.5402C40.9884 9.42167 39.2641 7.69746 37.1456 7.69746C36.4373 7.69746 35.8647 7.12488 35.8647 6.41661C35.8647 5.70834 36.4373 5.13576 37.1456 5.13576C40.6771 5.13576 43.5503 8.00896 43.5503 11.5405C43.5503 15.072 40.6771 17.9447 37.1456 17.9447Z" fill="url(#paint1_linear)"/>
<path d="M37.147 17.9434H14.0903C13.382 17.9434 12.8094 17.3708 12.8094 16.6625C12.8094 15.9542 13.382 15.3817 14.0903 15.3817H37.147C37.8553 15.3817 38.4278 15.9542 38.4278 16.6625C38.4278 17.3708 37.8553 17.9434 37.147 17.9434Z" fill="url(#paint2_linear)"/>
<path d="M37.1456 7.69714L14.09 7.69594C13.3818 7.69594 12.8092 7.12216 12.8092 6.41509C12.8092 5.70682 13.383 5.13424 14.09 5.13424L37.1456 5.13544C37.8538 5.13544 38.4264 5.70922 38.4264 6.41629C38.4266 7.12456 37.8526 7.69714 37.1456 7.69714Z" fill="url(#paint3_linear)"/>
<path d="M32.0231 12.8195H14.0903C13.382 12.8195 12.8094 12.247 12.8094 11.5387C12.8094 10.8304 13.382 10.2578 14.0903 10.2578H32.0234C32.7316 10.2578 33.3042 10.8304 33.3042 11.5387C33.3042 12.247 32.7316 12.8195 32.0231 12.8195Z" fill="url(#paint4_linear)"/>
<path d="M32.0231 17.9446C31.3148 17.9446 30.7423 17.372 30.7423 16.6638V11.5387C30.7423 10.8304 31.3148 10.2578 32.0231 10.2578C32.7314 10.2578 33.304 10.8304 33.304 11.5387V16.6638C33.3042 17.372 32.7316 17.9446 32.0231 17.9446Z" fill="url(#paint5_linear)"/>
<path d="M14.0903 23.0671C9.14727 23.0671 5.12387 19.0437 5.12387 14.1007C5.12387 9.15764 9.14727 5.13424 14.0903 5.13424C14.7986 5.13424 15.3711 5.70682 15.3711 6.41509C15.3711 7.12336 14.7986 7.69594 14.0903 7.69594C10.5588 7.69594 7.68557 10.5689 7.68557 14.1004C7.68557 17.6319 10.5588 20.5051 14.0903 20.5051C14.7986 20.5051 15.3711 21.0777 15.3711 21.786C15.3711 22.4945 14.7986 23.0671 14.0903 23.0671Z" fill="url(#paint6_linear)"/>
<path d="M37.147 23.067H14.0903C13.382 23.067 12.8094 22.4945 12.8094 21.7862C12.8094 21.0779 13.382 20.5053 14.0903 20.5053H37.147C37.8553 20.5053 38.4278 21.0779 38.4278 21.7862C38.4278 22.4945 37.8553 23.067 37.147 23.067Z" fill="url(#paint7_linear)"/>
<path d="M37.147 23.0671C36.4387 23.0671 35.8661 22.4945 35.8661 21.7863C35.8661 21.078 36.4387 20.5054 37.147 20.5054C42.09 20.5054 46.1134 16.482 46.1134 11.539C46.1134 6.59598 42.09 2.57258 37.147 2.57258C36.4387 2.57258 35.8661 2 35.8661 1.29173C35.8661 0.583456 36.4387 0.0108814 37.147 0.0108814C43.5042 0.0108814 48.6754 5.18207 48.6754 11.5392C48.6754 17.8964 43.5042 23.0671 37.147 23.0671Z" fill="url(#paint8_linear)"/>
<path d="M14.0903 28.1909C6.32138 28.1909 -3.8147e-06 21.8695 -3.8147e-06 14.1006C-3.8147e-06 6.33166 6.32138 0.0105171 14.0903 0.0105171C14.7986 0.0105171 15.3711 0.583092 15.3711 1.29137C15.3711 1.99964 14.7986 2.57221 14.0903 2.57221C7.73312 2.57221 2.56193 7.7434 2.56193 14.1006C2.56193 20.4577 7.73312 25.6289 14.0903 25.6289C14.7986 25.6289 15.3711 26.2015 15.3711 26.9098C15.3711 27.618 14.7986 28.1909 14.0903 28.1909Z" fill="url(#paint9_linear)"/>
<path d="M37.147 2.57209H14.0903C13.382 2.57209 12.8094 1.99951 12.8094 1.29124C12.8094 0.582966 13.382 0.0103912 14.0903 0.0103912H37.147C37.8553 0.0103912 38.4278 0.582966 38.4278 1.29124C38.4278 1.99951 37.8553 2.57209 37.147 2.57209Z" fill="url(#paint10_linear)"/>
<path d="M38.4278 28.1907H14.0903C13.382 28.1907 12.8094 27.6181 12.8094 26.9098C12.8094 26.2015 13.382 25.629 14.0903 25.629H38.4278C39.1361 25.629 39.7087 26.2015 39.7087 26.9098C39.7087 27.6181 39.1361 28.1907 38.4278 28.1907Z" fill="url(#paint11_linear)"/>
<path d="M14.0903 81.9899C6.32138 81.9899 -3.8147e-06 75.6685 -3.8147e-06 67.8996C-3.8147e-06 67.1913 0.572571 66.6187 1.28084 66.6187C1.98912 66.6187 2.56169 67.1913 2.56169 67.8996C2.56169 74.2568 7.73288 79.4279 14.0901 79.4279C14.7983 79.4279 15.3709 80.0005 15.3709 80.7088C15.3709 81.4171 14.7986 81.9899 14.0903 81.9899Z" fill="url(#paint12_linear)"/>
<path d="M14.0903 65.3531C6.32138 65.3531 -3.8147e-06 59.0317 -3.8147e-06 51.2628C-3.8147e-06 50.5546 0.572571 49.982 1.28084 49.982C1.98912 49.982 2.56169 50.5546 2.56169 51.2628C2.56169 57.62 7.73288 62.7912 14.0901 62.7912C14.7983 62.7912 15.3709 63.3638 15.3709 64.072C15.3709 64.7803 14.7986 65.3531 14.0903 65.3531Z" fill="url(#paint13_linear)"/>
<path d="M14.0903 44.8404C6.32138 44.8404 -3.8147e-06 38.5191 -3.8147e-06 30.7501C-3.8147e-06 30.0419 0.572571 29.4693 1.28084 29.4693C1.98912 29.4693 2.56169 30.0419 2.56169 30.7501C2.56169 37.1073 7.73288 42.2785 14.0901 42.2785C14.7983 42.2785 15.3709 42.8511 15.3709 43.5594C15.3709 44.2676 14.7986 44.8404 14.0903 44.8404Z" fill="url(#paint14_linear)"/>
<path d="M80.7189 81.9897H14.0903C13.382 81.9897 12.8094 81.4171 12.8094 80.7088C12.8094 80.0006 13.382 79.428 14.0903 79.428H80.7192C81.4274 79.428 82 80.0006 82 80.7088C82 81.4171 81.4274 81.9897 80.7189 81.9897Z" fill="url(#paint15_linear)"/>
<path d="M80.7189 28.1907H38.4279C37.7196 28.1907 37.147 27.6181 37.147 26.9098C37.147 26.2015 37.7196 25.629 38.4279 25.629H80.7189C81.4272 25.629 81.9998 26.2015 81.9998 26.9098C81.9998 27.6181 81.4274 28.1907 80.7189 28.1907Z" fill="url(#paint16_linear)"/>
<path d="M1.28084 69.1806C0.572571 69.1806 -3.8147e-06 68.608 -3.8147e-06 67.8998V14.1008C-3.8147e-06 13.3925 0.572571 12.8199 1.28084 12.8199C1.98912 12.8199 2.56169 13.3925 2.56169 14.1008V67.8998C2.56193 68.608 1.98936 69.1806 1.28084 69.1806Z" fill="url(#paint17_linear)"/>
<path d="M47.3943 28.1907C46.686 28.1907 46.1134 27.6181 46.1134 26.9098V11.5387C46.1134 10.8304 46.686 10.2578 47.3943 10.2578C48.1025 10.2578 48.6751 10.8304 48.6751 11.5387V26.9098C48.6754 27.6181 48.1028 28.1907 47.3943 28.1907Z" fill="url(#paint18_linear)"/>
<path d="M80.7189 81.9897C80.0106 81.9897 79.4381 81.4171 79.4381 80.7088V26.9098C79.4381 26.2015 80.0106 25.629 80.7189 25.629C81.4272 25.629 81.9998 26.2015 81.9998 26.9098V80.7088C82 81.4171 81.4274 81.9897 80.7189 81.9897Z" fill="url(#paint19_linear)"/>
<path d="M32.0335 65.3532H14.0903C13.382 65.3532 12.8094 64.7806 12.8094 64.0724C12.8094 63.3641 13.382 62.7915 14.0903 62.7915H32.0335C32.7417 62.7915 33.3143 63.3641 33.3143 64.0724C33.3143 64.7806 32.7417 65.3532 32.0335 65.3532Z" fill="url(#paint20_linear)"/>
<path d="M80.7189 35.8763H39.719C39.0107 35.8763 38.4382 35.3037 38.4382 34.5954C38.4382 33.8871 39.0107 33.3146 39.719 33.3146H80.7189C81.4272 33.3146 81.9998 33.8871 81.9998 34.5954C82 35.3037 81.4274 35.8763 80.7189 35.8763Z" fill="url(#paint21_linear)"/>
<path d="M32.0246 81.9898C31.3163 81.9898 30.7437 81.4172 30.7437 80.7089C30.7437 76.4768 34.1869 73.0337 38.419 73.0337C39.1272 73.0337 39.6998 73.6063 39.6998 74.3145C39.6998 75.0228 39.1272 75.5954 38.419 75.5954C35.5996 75.5954 33.3054 77.8895 33.3054 80.7089C33.3054 81.4172 32.7328 81.9898 32.0246 81.9898Z" fill="url(#paint22_linear)"/>
<path d="M80.7088 75.5954H38.419C37.7107 75.5954 37.1381 75.0228 37.1381 74.3146C37.1381 73.6063 37.7107 73.0337 38.419 73.0337H80.7088C81.4171 73.0337 81.9897 73.6063 81.9897 74.3146C81.9897 75.0228 81.4171 75.5954 80.7088 75.5954Z" fill="url(#paint23_linear)"/>
<path d="M80.7189 62.7757H57.6379C56.9297 62.7757 56.3571 62.2032 56.3571 61.4949C56.3571 60.7866 56.9297 60.214 57.6379 60.214H80.7189C81.4272 60.214 81.9998 60.7866 81.9998 61.4949C82 62.2032 81.4274 62.7757 80.7189 62.7757Z" fill="url(#paint24_linear)"/>
<path d="M80.7189 49.9667H70.4536C69.7454 49.9667 69.1728 49.3941 69.1728 48.6858C69.1728 47.9776 69.7454 47.405 70.4536 47.405H80.7189C81.4272 47.405 81.9998 47.9776 81.9998 48.6858C81.9998 49.3941 81.4274 49.9667 80.7189 49.9667Z" fill="url(#paint25_linear)"/>
</g>
<defs>
<linearGradient id="paint0_linear" x1="12.8093" y1="10.2576" x2="12.8093" y2="17.9432" gradientUnits="userSpaceOnUse">
<stop stop-color="#FFD600"/>
<stop offset="1"/>
</linearGradient>
<linearGradient id="paint1_linear" x1="39.7075" y1="5.13576" x2="39.7075" y2="17.9447" gradientUnits="userSpaceOnUse">
<stop stop-color="#FFD600"/>
<stop offset="1"/>
</linearGradient>
<linearGradient id="paint2_linear" x1="25.6186" y1="15.3817" x2="25.6186" y2="17.9434" gradientUnits="userSpaceOnUse">
<stop stop-color="#FFD600"/>
<stop offset="1"/>
</linearGradient>
<linearGradient id="paint3_linear" x1="25.6178" y1="5.13424" x2="25.6178" y2="7.69714" gradientUnits="userSpaceOnUse">
<stop stop-color="#FFD600"/>
<stop offset="1"/>
</linearGradient>
<linearGradient id="paint4_linear" x1="23.0568" y1="10.2578" x2="23.0568" y2="12.8195" gradientUnits="userSpaceOnUse">
<stop stop-color="#FFD600"/>
<stop offset="1"/>
</linearGradient>
<linearGradient id="paint5_linear" x1="32.0231" y1="10.2578" x2="32.0231" y2="17.9446" gradientUnits="userSpaceOnUse">
<stop stop-color="#FFD600"/>
<stop offset="1"/>
</linearGradient>
<linearGradient id="paint6_linear" x1="10.2475" y1="5.13424" x2="10.2475" y2="23.0671" gradientUnits="userSpaceOnUse">
<stop stop-color="#FFD600"/>
<stop offset="1"/>
</linearGradient>
<linearGradient id="paint7_linear" x1="25.6186" y1="20.5053" x2="25.6186" y2="23.067" gradientUnits="userSpaceOnUse">
<stop stop-color="#FFD600"/>
<stop offset="1"/>
</linearGradient>
<linearGradient id="paint8_linear" x1="42.2708" y1="0.0108814" x2="42.2708" y2="23.0671" gradientUnits="userSpaceOnUse">
<stop stop-color="#FFD600"/>
<stop offset="1"/>
</linearGradient>
<linearGradient id="paint9_linear" x1="7.68557" y1="0.0105171" x2="7.68557" y2="28.1909" gradientUnits="userSpaceOnUse">
<stop stop-color="#FFD600"/>
<stop offset="1"/>
</linearGradient>
<linearGradient id="paint10_linear" x1="25.6186" y1="0.0103912" x2="25.6186" y2="2.57209" gradientUnits="userSpaceOnUse">
<stop stop-color="#FFD600"/>
<stop offset="1"/>
</linearGradient>
<linearGradient id="paint11_linear" x1="26.2591" y1="25.629" x2="26.2591" y2="28.1907" gradientUnits="userSpaceOnUse">
<stop stop-color="#FFD600"/>
<stop offset="1"/>
</linearGradient>
<linearGradient id="paint12_linear" x1="7.68545" y1="66.6187" x2="7.68545" y2="81.9899" gradientUnits="userSpaceOnUse">
<stop stop-color="#FFD600"/>
<stop offset="1"/>
</linearGradient>
<linearGradient id="paint13_linear" x1="7.68545" y1="49.982" x2="7.68545" y2="65.3531" gradientUnits="userSpaceOnUse">
<stop stop-color="#FFD600"/>
<stop offset="1"/>
</linearGradient>
<linearGradient id="paint14_linear" x1="7.68545" y1="29.4693" x2="7.68545" y2="44.8404" gradientUnits="userSpaceOnUse">
<stop stop-color="#FFD600"/>
<stop offset="1"/>
</linearGradient>
<linearGradient id="paint15_linear" x1="47.4047" y1="79.428" x2="47.4047" y2="81.9897" gradientUnits="userSpaceOnUse">
<stop stop-color="#FFD600"/>
<stop offset="1"/>
</linearGradient>
<linearGradient id="paint16_linear" x1="59.5734" y1="25.629" x2="59.5734" y2="28.1907" gradientUnits="userSpaceOnUse">
<stop stop-color="#FFD600"/>
<stop offset="1"/>
</linearGradient>
<linearGradient id="paint17_linear" x1="1.28084" y1="12.8199" x2="1.28084" y2="69.1806" gradientUnits="userSpaceOnUse">
<stop stop-color="#FFD600"/>
<stop offset="1"/>
</linearGradient>
<linearGradient id="paint18_linear" x1="47.3943" y1="10.2578" x2="47.3943" y2="28.1907" gradientUnits="userSpaceOnUse">
<stop stop-color="#FFD600"/>
<stop offset="1"/>
</linearGradient>
<linearGradient id="paint19_linear" x1="80.7189" y1="25.629" x2="80.7189" y2="81.9897" gradientUnits="userSpaceOnUse">
<stop stop-color="#FFD600"/>
<stop offset="1"/>
</linearGradient>
<linearGradient id="paint20_linear" x1="23.0619" y1="62.7915" x2="23.0619" y2="65.3532" gradientUnits="userSpaceOnUse">
<stop stop-color="#FFD600"/>
<stop offset="1"/>
</linearGradient>
<linearGradient id="paint21_linear" x1="60.219" y1="33.3146" x2="60.219" y2="35.8763" gradientUnits="userSpaceOnUse">
<stop stop-color="#FFD600"/>
<stop offset="1"/>
</linearGradient>
<linearGradient id="paint22_linear" x1="35.2218" y1="73.0337" x2="35.2218" y2="81.9898" gradientUnits="userSpaceOnUse">
<stop stop-color="#FFD600"/>
<stop offset="1"/>
</linearGradient>
<linearGradient id="paint23_linear" x1="59.5639" y1="73.0337" x2="59.5639" y2="75.5954" gradientUnits="userSpaceOnUse">
<stop stop-color="#FFD600"/>
<stop offset="1"/>
</linearGradient>
<linearGradient id="paint24_linear" x1="69.1784" y1="60.214" x2="69.1784" y2="62.7757" gradientUnits="userSpaceOnUse">
<stop stop-color="#FFD600"/>
<stop offset="1"/>
</linearGradient>
<linearGradient id="paint25_linear" x1="75.5863" y1="47.405" x2="75.5863" y2="49.9667" gradientUnits="userSpaceOnUse">
<stop stop-color="#FFD600"/>
<stop offset="1"/>
</linearGradient>
<clipPath id="clip0">
<rect width="82" height="82" fill="white"/>
</clipPath>
</defs>
</svg>
